 http://s14.postimage.org/3qwmeuzrl/ganda.jpg



Gandang Gabi Vice 2012 DVDRip 720p EP



info:


Imdb                             : http://www.imdb.com/title/tt1943249/ 
Genres                           : Comedy | Musical | Talk-Show
Audio Language                   : Filipino | Tagalog
Country                          : Philippines



General
Complete name                            : Gandang Gabi Vice 2012 DVDRip 720p EP.avi
Format                                   : AVI
Format/Info                              : Audio Video Interleave
Format profile                           : OpenDML
File size                                : 2.04 GiB
Duration                                 : 3h 46mn
Overall bit rate                         : 1 293 Kbps
Movie name                               : GGV.Title1.DVDRip
Writing application                      : VirtualDubMod


Video
ID                                       : 0
Format                                   : AVC
Format/Info                              : Advanced Video Codec
Format profile                           : High@L3.1
Format settings, CABAC                   : Yes
Format settings, ReFrames                : 3 frames
Codec ID                                 : H264
Duration                                 : 3h 46mn
Bit rate                                 : 1 089 Kbps
Width                                    : 1 280 pixels
Height                                   : 720 pixels
Display aspect ratio                     : 16:9
Frame rate                               : 23.976 fps
Color space                              : YUV
Chroma subsampling                       : 4:2:0
Bit depth                                : 8 bits
Scan type                                : Progressive
Bits/(Pixel*Frame)                       : 0.049
Stream size                              : 1.72 GiB (84%)
Writing library                          : x264 core 119 r2106kMod 07efeb4
Encoding settings                        : cabac=1 / ref=3 / deblock=1:0:0

Audio
ID                                       : 1
Format                                   : AC-3
Format/Info                              : Audio Coding 3
Mode extension                           : CM (complete main)
Codec ID                                 : 2000
Duration                                 : 3h 46mn
Bit rate mode                            : Constant
Bit rate                                 : 192 Kbps
Channel(s)                               : 2 channels
Channel positions                        : Front: L R
Sampling rate                            : 48.0 KHz
Bit depth                                : 16 bits
Compression mode                         : Lossy
Stream size                              : 311 MiB (15%)
Alignment                                : Split accross interleaves
Interleave, duration                     : 42 ms (1.00 video frame)
Interleave, preload duration             : 500 ms




cast:

Vice Ganda 	... 	Himself - Host (80 episodes, 2011-2012) 




ScreenShot:

 
http://s13.postimage.org/48ksh9ycn/image.jpg 
http://s13.postimage.org/3x7xi97af/image.jpg 
http://s13.postimage.org/dvsw4qgpz/image.jpg 
http://s13.postimage.org/x2637wx7r/image.jpg 
http://s13.postimage.org/6idi5rwo7/image.jpg